<?xml version="1.0" encoding="UTF-8" standalone="no"?>
<!-- Generator: Adobe Illustrator 19.0.0, SVG Export Plug-In . SVG Version: 6.00 Build 0)  -->

<svg
   version="1.1"
   id="Layer_1"
   x="0px"
   y="0px"
   viewBox="0 0 398.156 398.156"
   style="enable-background:new 0 0 398.156 398.156;"
   xml:space="preserve"
   width="512"
   height="512"
   sodipodi:docname="icon.svg"
   inkscape:version="1.1.2 (b8e25be833, 2022-02-05)"
   xmlns:inkscape="http://www.inkscape.org/namespaces/inkscape"
   xmlns:sodipodi="http://sodipodi.sourceforge.net/DTD/sodipodi-0.dtd"
   xmlns="http://www.w3.org/2000/svg"
   xmlns:svg="http://www.w3.org/2000/svg"><defs
   id="defs161">
		
		
		
		
		
		
	
		
		
		
		
		
		
	
		
		
	</defs><sodipodi:namedview
   id="namedview159"
   pagecolor="#505050"
   bordercolor="#eeeeee"
   borderopacity="1"
   inkscape:pageshadow="0"
   inkscape:pageopacity="0"
   inkscape:pagecheckerboard="0"
   showgrid="false"
   inkscape:zoom="1.0758519"
   inkscape:cx="385.74082"
   inkscape:cy="304.40992"
   inkscape:window-width="1920"
   inkscape:window-height="1001"
   inkscape:window-x="-9"
   inkscape:window-y="-9"
   inkscape:window-maximized="1"
   inkscape:current-layer="g156" />
<g
   id="g156">
	
	
	
	
	
	
	
	
	<g
   id="g12695"
   transform="translate(-0.36513034,-0.54719237)"><g
     id="g152"
     transform="matrix(0.60441369,-0.59642356,0.68409339,0.67504992,-48.914654,197.04632)">
		<path
   style="fill:#333e48"
   d="m 199.078,5.158 c -52.156,0 -94.436,42.281 -94.436,94.438 0,7.163 0.823,14.13 2.334,20.836 l 0.005,-0.005 c 29.737,19.248 66.712,26.921 92.098,26.921 25.386,0 62.36,-7.673 92.098,-26.921 l 0.004,0.007 c 1.512,-6.707 2.335,-13.675 2.335,-20.838 C 293.515,47.439 251.234,5.158 199.078,5.158 Z"
   id="path144" />
		<g
   id="g150">
			
			
		</g>
	</g><path
     style="fill:#333e48;stroke-width:0.940749"
     d="m 251.97492,96.58043 c -2.77437,2.737687 -7.27107,2.737027 -10.04476,0 -2.7737,-2.737026 -2.77436,-7.174286 0,-9.911973 12.07648,-11.916836 12.07648,-31.307298 -6.7e-4,-43.224794 -2.77369,-2.737026 -2.77369,-7.174948 0,-9.911974 2.77436,-2.737687 7.27106,-2.737026 10.04476,0 17.61583,17.382959 17.6165,45.665784 6.7e-4,63.048741 z"
     id="path86" /><path
     style="fill:#333e48;stroke-width:0.940749"
     d="m 358.55251,132.66927 c -2.77435,2.73769 -7.27106,2.73702 -10.04475,0 -12.07648,-11.91684 -31.72672,-11.91684 -43.80387,6.5e-4 -2.77436,2.73769 -7.27106,2.73704 -10.04476,0 -2.77369,-2.73702 -2.77437,-7.17428 0,-9.91197 17.61583,-17.38295 46.27823,-17.38295 63.89338,-6.6e-4 2.7737,2.73702 2.7737,7.17494 0,9.91198 z"
     id="path88" /><path
     style="fill:#333e48;stroke-width:0.940749"
     d="m 395.10808,212.57364 c -2.77436,2.73769 -7.27107,2.73704 -10.04475,0 -12.07649,-11.91683 -31.72672,-11.91683 -43.80387,6.7e-4 -2.77436,2.73768 -7.27107,2.73702 -10.04476,0 -2.7737,-2.73703 -2.77437,-7.17429 0,-9.91197 17.61583,-17.38297 46.27822,-17.38297 63.89338,-6.7e-4 2.7737,2.73703 2.7737,7.17495 0,9.91197 z"
     id="path90" /><path
     style="fill:#333e48;stroke-width:0.940749"
     d="m 121.52735,66.408021 c -0.31072,0.30661 -0.65492,0.589432 -1.0306,0.841196 -3.24177,2.178651 -7.6608,1.351993 -9.86863,-1.846931 -14.025843,-20.317563 -8.67935,-48.108094 11.90169,-61.9452081 3.24111,-2.1793126 7.66014,-1.352654 9.86931,1.8462702 2.20852,3.199585 1.37079,7.5588709 -1.87166,9.7395049 -14.11825,9.491045 -17.7732,28.539214 -8.1597,42.468841 1.95271,2.826895 1.52412,6.563048 -0.84041,8.896327 z"
     id="path100" /><path
     style="fill:#333e48;stroke-width:0.940749"
     d="m 91.977942,254.46231 c -17.615833,17.38296 -46.277555,17.3823 -63.893388,-6.6e-4 -2.773693,-2.73703 -2.774363,-7.17429 0,-9.91197 2.773693,-2.73703 7.271068,-2.73703 10.044761,0 12.077152,11.91749 31.727384,11.91749 43.803866,6.6e-4 2.774363,-2.73769 7.271068,-2.73703 10.044761,0 2.773693,2.73702 2.774363,7.17428 0,9.91197 z"
     id="path102" /><path
     style="fill:#333e48;stroke-width:0.940749"
     d="m 128.55092,359.63033 c -2.77436,2.73769 -7.27107,2.73703 -10.04476,0 -17.61517,-17.3823 -17.61517,-45.66578 6.7e-4,-63.04874 2.77436,-2.73769 7.27106,-2.73703 10.04476,0 2.77369,2.73703 2.77436,7.17429 0,9.91197 -12.07715,11.9175 -12.07715,31.30796 -6.7e-4,43.2248 2.77369,2.73702 2.77369,7.17494 0,9.91197 z"
     id="path104" /><path
     style="fill:#333e48;stroke-width:0.940749"
     d="m 209.52576,395.70264 c -2.77437,2.73769 -7.27107,2.73703 -10.04476,0 -17.61517,-17.38229 -17.61517,-45.66578 6.7e-4,-63.04874 2.77436,-2.73768 7.27106,-2.73702 10.04476,0 2.77369,2.73703 2.77436,7.17429 0,9.91198 -12.07715,11.91749 -12.07715,31.30796 -6.7e-4,43.22479 2.77369,2.73703 2.77369,7.17495 0,9.91197 z"
     id="path106" /><path
     style="fill:#333e48;stroke-width:0.940749"
     d="m 66.193048,121.6863 c -2.365207,2.33394 -6.150072,2.75685 -9.015508,0.8293 -14.115568,-9.48708 -33.42026,-5.87648 -43.037115,8.05118 -2.207839,3.19892 -6.6261945,4.02623 -9.8699828,1.84692 -3.2411097,-2.17931 -4.07951245,-6.53925 -1.8710042,-9.73884 14.023157,-20.31492 42.185319,-25.584788 62.774401,-11.74503 3.24178,2.17865 4.080182,6.53859 1.871674,9.73818 -0.255806,0.37137 -0.541746,0.71168 -0.852465,1.01829 z"
     id="path116" /><ellipse
     style="fill:#7b98f9;fill-opacity:1;stroke-width:0.94079"
     cx="-4.1409459"
     cy="300.00735"
     id="circle118"
     transform="matrix(0.71179597,-0.70238629,0.71179597,0.70238629,0,0)"
     rx="145.0043"
     ry="145.00403" /><path
     style="fill:#333e48;fill-opacity:1;stroke-width:0.940749"
     d="m 106.64838,113.67049 c 4.36947,13.20473 188.9871,207.59522 183.77588,220.56536 8.27085,-5.34123 16.11983,-11.58511 23.38621,-18.75543 7.2637,-7.16768 13.57784,-14.91157 18.98728,-23.06979 -13.13855,5.1344 -212.77377,-174.43041 -226.14937,-178.74014 z"
     id="path120"
     sodipodi:nodetypes="ccscc" /><g
     id="g134"
     transform="matrix(0.66965076,-0.66079822,0.66965076,0.66079822,-86.128401,183.92937)">
		<path
   style="fill:#333e48"
   d="m 311.209,138.286 c -14.786,0.072 -26.75,12.078 -26.75,26.88 0,14.848 12.036,26.884 26.884,26.884 11.611,0 21.503,-7.362 25.263,-17.672 -6.722,-13.247 -15.301,-25.391 -25.397,-36.092 z"
   id="path128" />
		<circle
   style="fill:#333e48"
   cx="257.57501"
   cy="266.74799"
   r="26.884001"
   id="circle130" />
		<path
   style="fill:#333e48"
   d="m 292.734,344.354 c -14.847,0 -26.884,12.036 -26.884,26.884 0,3.785 0.786,7.386 2.198,10.652 15.795,-7.917 30.041,-18.464 42.16,-31.074 -4.698,-4.026 -10.799,-6.462 -17.474,-6.462 z"
   id="path132" />
	</g><g
     id="g142"
     transform="matrix(0.66965076,-0.66079822,0.66965076,0.66079822,-86.128401,183.92937)">
		<path
   style="fill:#333e48"
   d="m 86.947,138.286 c 14.786,0.072 26.75,12.078 26.75,26.88 0,14.848 -12.036,26.884 -26.884,26.884 -11.611,0 -21.503,-7.362 -25.263,-17.672 6.722,-13.247 15.303,-25.391 25.397,-36.092 z"
   id="path136" />
		<circle
   style="fill:#333e48"
   cx="140.58099"
   cy="266.74799"
   r="26.884001"
   id="circle138" />
		<path
   style="fill:#333e48"
   d="m 105.422,344.354 c 14.848,0 26.884,12.036 26.884,26.884 0,3.785 -0.786,7.386 -2.198,10.652 -15.795,-7.917 -30.041,-18.464 -42.16,-31.074 4.699,-4.026 10.8,-6.462 17.474,-6.462 z"
   id="path140" />
	</g></g>
	
	
</g>















</svg>
