<?xml version="1.0" encoding="UTF-8" standalone="no"?>
<!DOCTYPE svg PUBLIC "-//W3C//DTD SVG 1.1//EN"
 "http://www.w3.org/Graphics/SVG/1.1/DTD/svg11.dtd">
<!-- Generated by graphviz version 3.0.0 (20220226.1711)
 -->
<!-- Pages: 1 -->
<svg width="2473pt" height="519pt"
 viewBox="0.00 0.00 2472.75 519.44" xmlns="http://www.w3.org/2000/svg" xmlns:xlink="http://www.w3.org/1999/xlink">
<g id="graph0" class="graph" transform="scale(1 1) rotate(0) translate(4 515.44)">
<!-- wtforms -->
<g id="node1" class="node">
<title>wtforms</title>
<ellipse fill="none" stroke="black" cx="1575.55" cy="-275.09" rx="53.98" ry="26.74"/>
<text text-anchor="middle" x="1575.55" y="-278.89" font-family="Times New Roman,serif" font-size="14.00">WTForms</text>
<text text-anchor="middle" x="1575.55" y="-263.89" font-family="Times New Roman,serif" font-size="14.00">3.0.1</text>
</g>
<!-- markupsafe -->
<g id="node2" class="node">
<title>markupsafe</title>
<ellipse fill="none" stroke="black" cx="1350.55" cy="-26.87" rx="60.21" ry="26.74"/>
<text text-anchor="middle" x="1350.55" y="-30.67" font-family="Times New Roman,serif" font-size="14.00">MarkupSafe</text>
<text text-anchor="middle" x="1350.55" y="-15.67" font-family="Times New Roman,serif" font-size="14.00">2.1.0</text>
</g>
<!-- wtforms&#45;&gt;markupsafe -->
<g id="edge1" class="edge">
<title>wtforms&#45;&gt;markupsafe</title>
<path fill="none" stroke="black" d="M1541.84,-253.83C1531.6,-246.95 1520.66,-238.81 1511.55,-230.22 1446.67,-169.06 1445.09,-140.68 1388.55,-71.74 1385.44,-67.95 1382.13,-64.01 1378.83,-60.12"/>
<polygon fill="black" stroke="black" points="1381.26,-57.58 1372.09,-52.27 1375.94,-62.13 1381.26,-57.58"/>
<text text-anchor="middle" x="1459.55" y="-127.91" font-family="Times New Roman,serif" font-size="14.00">any</text>
</g>
<!-- wincertstore -->
<g id="node3" class="node">
<title>wincertstore</title>
<ellipse fill="none" stroke="black" cx="1324.55" cy="-484.57" rx="60.21" ry="26.74"/>
<text text-anchor="middle" x="1324.55" y="-488.37" font-family="Times New Roman,serif" font-size="14.00">wincertstore</text>
<text text-anchor="middle" x="1324.55" y="-473.37" font-family="Times New Roman,serif" font-size="14.00">0.2</text>
</g>
<!-- wheel -->
<g id="node4" class="node">
<title>wheel</title>
<ellipse fill="none" stroke="black" cx="1629.55" cy="-484.57" rx="36.12" ry="26.74"/>
<text text-anchor="middle" x="1629.55" y="-488.37" font-family="Times New Roman,serif" font-size="14.00">wheel</text>
<text text-anchor="middle" x="1629.55" y="-473.37" font-family="Times New Roman,serif" font-size="14.00">0.37.1</text>
</g>
<!-- werkzeug -->
<g id="node5" class="node">
<title>werkzeug</title>
<ellipse fill="none" stroke="black" cx="967.55" cy="-131.61" rx="51.74" ry="26.74"/>
<text text-anchor="middle" x="967.55" y="-135.41" font-family="Times New Roman,serif" font-size="14.00">Werkzeug</text>
<text text-anchor="middle" x="967.55" y="-120.41" font-family="Times New Roman,serif" font-size="14.00">2.0.3</text>
</g>
<!-- webargs -->
<g id="node6" class="node">
<title>webargs</title>
<ellipse fill="none" stroke="black" cx="44.55" cy="-379.83" rx="44.6" ry="26.74"/>
<text text-anchor="middle" x="44.55" y="-383.63" font-family="Times New Roman,serif" font-size="14.00">webargs</text>
<text text-anchor="middle" x="44.55" y="-368.63" font-family="Times New Roman,serif" font-size="14.00">8.1.0</text>
</g>
<!-- marshmallow -->
<g id="node7" class="node">
<title>marshmallow</title>
<ellipse fill="none" stroke="black" cx="134.55" cy="-275.09" rx="63.78" ry="26.74"/>
<text text-anchor="middle" x="134.55" y="-278.89" font-family="Times New Roman,serif" font-size="14.00">marshmallow</text>
<text text-anchor="middle" x="134.55" y="-263.89" font-family="Times New Roman,serif" font-size="14.00">3.15.0</text>
</g>
<!-- webargs&#45;&gt;marshmallow -->
<g id="edge2" class="edge">
<title>webargs&#45;&gt;marshmallow</title>
<path fill="none" stroke="black" d="M50.33,-352.94C53.72,-341.94 58.89,-329.48 66.55,-319.96 71.99,-313.2 78.77,-307.14 85.93,-301.85"/>
<polygon fill="black" stroke="black" points="88.19,-304.54 94.44,-295.98 84.22,-298.77 88.19,-304.54"/>
<text text-anchor="middle" x="89.05" y="-323.76" font-family="Times New Roman,serif" font-size="14.00">&gt;=3.0.0</text>
</g>
<!-- packaging -->
<g id="node8" class="node">
<title>packaging</title>
<ellipse fill="none" stroke="black" cx="66.55" cy="-131.61" rx="51.74" ry="26.74"/>
<text text-anchor="middle" x="66.55" y="-135.41" font-family="Times New Roman,serif" font-size="14.00">packaging</text>
<text text-anchor="middle" x="66.55" y="-120.41" font-family="Times New Roman,serif" font-size="14.00">21.3</text>
</g>
<!-- webargs&#45;&gt;packaging -->
<g id="edge3" class="edge">
<title>webargs&#45;&gt;packaging</title>
<path fill="none" stroke="black" d="M43.28,-352.86C42.62,-337.97 41.88,-318.92 41.55,-301.96 41.08,-278.08 39.01,-271.97 41.55,-248.22 44.44,-221.13 51.05,-191.06 56.75,-168.39"/>
<polygon fill="black" stroke="black" points="60.18,-169.08 59.28,-158.52 53.4,-167.34 60.18,-169.08"/>
<text text-anchor="middle" x="51.55" y="-271.39" font-family="Times New Roman,serif" font-size="14.00">any</text>
</g>
<!-- marshmallow&#45;&gt;packaging -->
<g id="edge7" class="edge">
<title>marshmallow&#45;&gt;packaging</title>
<path fill="none" stroke="black" d="M122.23,-248.47C111.31,-225.73 95.25,-192.32 83.18,-167.22"/>
<polygon fill="black" stroke="black" points="86.26,-165.54 78.77,-158.04 79.95,-168.57 86.26,-165.54"/>
<text text-anchor="middle" x="123.55" y="-199.65" font-family="Times New Roman,serif" font-size="14.00">any</text>
</g>
<!-- pyparsing -->
<g id="node15" class="node">
<title>pyparsing</title>
<ellipse fill="none" stroke="black" cx="66.55" cy="-26.87" rx="50.41" ry="26.74"/>
<text text-anchor="middle" x="66.55" y="-30.67" font-family="Times New Roman,serif" font-size="14.00">pyparsing</text>
<text text-anchor="middle" x="66.55" y="-15.67" font-family="Times New Roman,serif" font-size="14.00">3.0.8</text>
</g>
<!-- packaging&#45;&gt;pyparsing -->
<g id="edge6" class="edge">
<title>packaging&#45;&gt;pyparsing</title>
<path fill="none" stroke="black" d="M66.55,-104.68C66.55,-92.4 66.55,-77.51 66.55,-64.12"/>
<polygon fill="black" stroke="black" points="70.05,-63.79 66.55,-53.79 63.05,-63.79 70.05,-63.79"/>
<text text-anchor="middle" x="111.05" y="-75.54" font-family="Times New Roman,serif" font-size="14.00">&gt;=2.0.2,!=3.0.5</text>
</g>
<!-- sqlalchemy -->
<g id="node9" class="node">
<title>sqlalchemy</title>
<ellipse fill="none" stroke="black" cx="683.55" cy="-275.09" rx="65.52" ry="26.74"/>
<text text-anchor="middle" x="683.55" y="-278.89" font-family="Times New Roman,serif" font-size="14.00">SQLAlchemy</text>
<text text-anchor="middle" x="683.55" y="-263.89" font-family="Times New Roman,serif" font-size="14.00">1.4.31</text>
</g>
<!-- greenlet -->
<g id="node10" class="node">
<title>greenlet</title>
<ellipse fill="none" stroke="black" cx="665.55" cy="-131.61" rx="41.94" ry="26.74"/>
<text text-anchor="middle" x="665.55" y="-135.41" font-family="Times New Roman,serif" font-size="14.00">greenlet</text>
<text text-anchor="middle" x="665.55" y="-120.41" font-family="Times New Roman,serif" font-size="14.00">1.1.2</text>
</g>
<!-- sqlalchemy&#45;&gt;greenlet -->
<g id="edge4" class="edge">
<title>sqlalchemy&#45;&gt;greenlet</title>
<path fill="none" stroke="black" d="M668.43,-248.87C665.58,-242.95 663.04,-236.52 661.55,-230.22 656.82,-210.26 657.46,-187.38 659.44,-168.78"/>
<polygon fill="black" stroke="black" points="662.93,-169.02 660.69,-158.66 655.99,-168.16 662.93,-169.02"/>
<text text-anchor="middle" x="685.55" y="-199.65" font-family="Times New Roman,serif" font-size="14.00">!=0.4.17</text>
</g>
<!-- six -->
<g id="node11" class="node">
<title>six</title>
<ellipse fill="none" stroke="black" cx="1750.55" cy="-275.09" rx="36.12" ry="26.74"/>
<text text-anchor="middle" x="1750.55" y="-278.89" font-family="Times New Roman,serif" font-size="14.00">six</text>
<text text-anchor="middle" x="1750.55" y="-263.89" font-family="Times New Roman,serif" font-size="14.00">1.16.0</text>
</g>
<!-- setuptools -->
<g id="node12" class="node">
<title>setuptools</title>
<ellipse fill="none" stroke="black" cx="1831.55" cy="-484.57" rx="52.15" ry="26.74"/>
<text text-anchor="middle" x="1831.55" y="-488.37" font-family="Times New Roman,serif" font-size="14.00">setuptools</text>
<text text-anchor="middle" x="1831.55" y="-473.37" font-family="Times New Roman,serif" font-size="14.00">58.0.4</text>
</g>
<!-- pytz -->
<g id="node13" class="node">
<title>pytz</title>
<ellipse fill="none" stroke="black" cx="2059.55" cy="-275.09" rx="38.37" ry="26.74"/>
<text text-anchor="middle" x="2059.55" y="-278.89" font-family="Times New Roman,serif" font-size="14.00">pytz</text>
<text text-anchor="middle" x="2059.55" y="-263.89" font-family="Times New Roman,serif" font-size="14.00">2022.1</text>
</g>
<!-- python&#45;dotenv -->
<g id="node14" class="node">
<title>python&#45;dotenv</title>
<ellipse fill="none" stroke="black" cx="2019.55" cy="-484.57" rx="69.09" ry="26.74"/>
<text text-anchor="middle" x="2019.55" y="-488.37" font-family="Times New Roman,serif" font-size="14.00">python&#45;dotenv</text>
<text text-anchor="middle" x="2019.55" y="-473.37" font-family="Times New Roman,serif" font-size="14.00">0.19.2</text>
</g>
<!-- pyjwt -->
<g id="node16" class="node">
<title>pyjwt</title>
<ellipse fill="none" stroke="black" cx="558.55" cy="-275.09" rx="41.94" ry="26.74"/>
<text text-anchor="middle" x="558.55" y="-278.89" font-family="Times New Roman,serif" font-size="14.00">PyJWT</text>
<text text-anchor="middle" x="558.55" y="-263.89" font-family="Times New Roman,serif" font-size="14.00">2.3.0</text>
</g>
<!-- pipdeptree -->
<g id="node17" class="node">
<title>pipdeptree</title>
<ellipse fill="none" stroke="black" cx="2184.55" cy="-484.57" rx="53.98" ry="26.74"/>
<text text-anchor="middle" x="2184.55" y="-488.37" font-family="Times New Roman,serif" font-size="14.00">pipdeptree</text>
<text text-anchor="middle" x="2184.55" y="-473.37" font-family="Times New Roman,serif" font-size="14.00">2.2.1</text>
</g>
<!-- pip -->
<g id="node18" class="node">
<title>pip</title>
<ellipse fill="none" stroke="black" cx="2184.55" cy="-379.83" rx="36.12" ry="26.74"/>
<text text-anchor="middle" x="2184.55" y="-383.63" font-family="Times New Roman,serif" font-size="14.00">pip</text>
<text text-anchor="middle" x="2184.55" y="-368.63" font-family="Times New Roman,serif" font-size="14.00">21.2.4</text>
</g>
<!-- pipdeptree&#45;&gt;pip -->
<g id="edge5" class="edge">
<title>pipdeptree&#45;&gt;pip</title>
<path fill="none" stroke="black" d="M2184.55,-457.64C2184.55,-445.36 2184.55,-430.47 2184.55,-417.08"/>
<polygon fill="black" stroke="black" points="2188.05,-416.75 2184.55,-406.75 2181.05,-416.75 2188.05,-416.75"/>
<text text-anchor="middle" x="2207.05" y="-428.5" font-family="Times New Roman,serif" font-size="14.00">&gt;=6.0.0</text>
</g>
<!-- marshmallow&#45;sqlalchemy -->
<g id="node19" class="node">
<title>marshmallow&#45;sqlalchemy</title>
<ellipse fill="none" stroke="black" cx="401.55" cy="-379.83" rx="111.03" ry="26.74"/>
<text text-anchor="middle" x="401.55" y="-383.63" font-family="Times New Roman,serif" font-size="14.00">marshmallow&#45;sqlalchemy</text>
<text text-anchor="middle" x="401.55" y="-368.63" font-family="Times New Roman,serif" font-size="14.00">0.28.0</text>
</g>
<!-- marshmallow&#45;sqlalchemy&#45;&gt;marshmallow -->
<g id="edge9" class="edge">
<title>marshmallow&#45;sqlalchemy&#45;&gt;marshmallow</title>
<path fill="none" stroke="black" d="M344.27,-356.79C298.64,-339.23 235.13,-314.79 189.99,-297.42"/>
<polygon fill="black" stroke="black" points="191.23,-294.15 180.64,-293.83 188.72,-300.69 191.23,-294.15"/>
<text text-anchor="middle" x="307.05" y="-323.76" font-family="Times New Roman,serif" font-size="14.00">&gt;=3.0.0</text>
</g>
<!-- marshmallow&#45;sqlalchemy&#45;&gt;sqlalchemy -->
<g id="edge8" class="edge">
<title>marshmallow&#45;sqlalchemy&#45;&gt;sqlalchemy</title>
<path fill="none" stroke="black" d="M447.58,-355.28C472.05,-343.46 502.91,-329.64 531.55,-319.96 565.25,-308.57 575.37,-311.85 609.55,-301.96 614.86,-300.42 620.35,-298.72 625.82,-296.95"/>
<polygon fill="black" stroke="black" points="627.24,-300.17 635.63,-293.7 625.04,-293.53 627.24,-300.17"/>
<text text-anchor="middle" x="554.05" y="-323.76" font-family="Times New Roman,serif" font-size="14.00">&gt;=1.3.0</text>
</g>
<!-- mako -->
<g id="node20" class="node">
<title>mako</title>
<ellipse fill="none" stroke="black" cx="753.55" cy="-203.35" rx="34.8" ry="26.74"/>
<text text-anchor="middle" x="753.55" y="-207.15" font-family="Times New Roman,serif" font-size="14.00">Mako</text>
<text text-anchor="middle" x="753.55" y="-192.15" font-family="Times New Roman,serif" font-size="14.00">1.1.6</text>
</g>
<!-- mako&#45;&gt;markupsafe -->
<g id="edge10" class="edge">
<title>mako&#45;&gt;markupsafe</title>
<path fill="none" stroke="black" d="M771.23,-180.09C790.75,-157.21 824.37,-122.49 861.55,-104.74 934.57,-69.88 1164.77,-44.71 1281.39,-33.84"/>
<polygon fill="black" stroke="black" points="1282,-37.3 1291.63,-32.89 1281.35,-30.33 1282,-37.3"/>
<text text-anchor="middle" x="884.05" y="-127.91" font-family="Times New Roman,serif" font-size="14.00">&gt;=0.9.2</text>
</g>
<!-- jinja2 -->
<g id="node21" class="node">
<title>jinja2</title>
<ellipse fill="none" stroke="black" cx="1350.55" cy="-131.61" rx="33.47" ry="26.74"/>
<text text-anchor="middle" x="1350.55" y="-135.41" font-family="Times New Roman,serif" font-size="14.00">Jinja2</text>
<text text-anchor="middle" x="1350.55" y="-120.41" font-family="Times New Roman,serif" font-size="14.00">3.0.3</text>
</g>
<!-- jinja2&#45;&gt;markupsafe -->
<g id="edge11" class="edge">
<title>jinja2&#45;&gt;markupsafe</title>
<path fill="none" stroke="black" d="M1350.55,-104.68C1350.55,-92.4 1350.55,-77.51 1350.55,-64.12"/>
<polygon fill="black" stroke="black" points="1354.05,-63.79 1350.55,-53.79 1347.05,-63.79 1354.05,-63.79"/>
<text text-anchor="middle" x="1367.55" y="-75.54" font-family="Times New Roman,serif" font-size="14.00">&gt;=2.0</text>
</g>
<!-- itsdangerous -->
<g id="node22" class="node">
<title>itsdangerous</title>
<ellipse fill="none" stroke="black" cx="1804.55" cy="-131.61" rx="61.54" ry="26.74"/>
<text text-anchor="middle" x="1804.55" y="-135.41" font-family="Times New Roman,serif" font-size="14.00">itsdangerous</text>
<text text-anchor="middle" x="1804.55" y="-120.41" font-family="Times New Roman,serif" font-size="14.00">2.1.0</text>
</g>
<!-- graphviz -->
<g id="node23" class="node">
<title>graphviz</title>
<ellipse fill="none" stroke="black" cx="2301.55" cy="-484.57" rx="45.01" ry="26.74"/>
<text text-anchor="middle" x="2301.55" y="-488.37" font-family="Times New Roman,serif" font-size="14.00">graphviz</text>
<text text-anchor="middle" x="2301.55" y="-473.37" font-family="Times New Roman,serif" font-size="14.00">0.20</text>
</g>
<!-- flask -->
<g id="node24" class="node">
<title>flask</title>
<ellipse fill="none" stroke="black" cx="1350.55" cy="-275.09" rx="33.47" ry="26.74"/>
<text text-anchor="middle" x="1350.55" y="-278.89" font-family="Times New Roman,serif" font-size="14.00">Flask</text>
<text text-anchor="middle" x="1350.55" y="-263.89" font-family="Times New Roman,serif" font-size="14.00">2.0.3</text>
</g>
<!-- flask&#45;&gt;werkzeug -->
<g id="edge15" class="edge">
<title>flask&#45;&gt;werkzeug</title>
<path fill="none" stroke="black" d="M1318.19,-268.55C1281.13,-261.71 1218.9,-248.66 1167.55,-230.22 1111.38,-210.06 1050.18,-178.69 1010.47,-156.98"/>
<polygon fill="black" stroke="black" points="1012.04,-153.85 1001.59,-152.09 1008.66,-159.98 1012.04,-153.85"/>
<text text-anchor="middle" x="1184.55" y="-199.65" font-family="Times New Roman,serif" font-size="14.00">&gt;=2.0</text>
</g>
<!-- flask&#45;&gt;jinja2 -->
<g id="edge14" class="edge">
<title>flask&#45;&gt;jinja2</title>
<path fill="none" stroke="black" d="M1350.55,-248.14C1350.55,-225.94 1350.55,-193.75 1350.55,-168.98"/>
<polygon fill="black" stroke="black" points="1354.05,-168.87 1350.55,-158.87 1347.05,-168.87 1354.05,-168.87"/>
<text text-anchor="middle" x="1367.55" y="-199.65" font-family="Times New Roman,serif" font-size="14.00">&gt;=3.0</text>
</g>
<!-- flask&#45;&gt;itsdangerous -->
<g id="edge13" class="edge">
<title>flask&#45;&gt;itsdangerous</title>
<path fill="none" stroke="black" d="M1381.4,-264.48C1456.16,-241.18 1648.07,-181.37 1745.66,-150.96"/>
<polygon fill="black" stroke="black" points="1746.87,-154.25 1755.37,-147.93 1744.78,-147.57 1746.87,-154.25"/>
<text text-anchor="middle" x="1675.55" y="-199.65" font-family="Times New Roman,serif" font-size="14.00">&gt;=2.0</text>
</g>
<!-- click -->
<g id="node25" class="node">
<title>click</title>
<ellipse fill="none" stroke="black" cx="1135.55" cy="-131.61" rx="31.23" ry="26.74"/>
<text text-anchor="middle" x="1135.55" y="-135.41" font-family="Times New Roman,serif" font-size="14.00">click</text>
<text text-anchor="middle" x="1135.55" y="-120.41" font-family="Times New Roman,serif" font-size="14.00">8.0.4</text>
</g>
<!-- flask&#45;&gt;click -->
<g id="edge12" class="edge">
<title>flask&#45;&gt;click</title>
<path fill="none" stroke="black" d="M1325.04,-257.31C1286.02,-231.63 1211.5,-182.59 1168.46,-154.27"/>
<polygon fill="black" stroke="black" points="1170.31,-151.29 1160.03,-148.72 1166.46,-157.14 1170.31,-151.29"/>
<text text-anchor="middle" x="1304.05" y="-199.65" font-family="Times New Roman,serif" font-size="14.00">&gt;=7.1.2</text>
</g>
<!-- colorama -->
<g id="node39" class="node">
<title>colorama</title>
<ellipse fill="none" stroke="black" cx="817.55" cy="-26.87" rx="48.17" ry="26.74"/>
<text text-anchor="middle" x="817.55" y="-30.67" font-family="Times New Roman,serif" font-size="14.00">colorama</text>
<text text-anchor="middle" x="817.55" y="-15.67" font-family="Times New Roman,serif" font-size="14.00">0.4.4</text>
</g>
<!-- click&#45;&gt;colorama -->
<g id="edge42" class="edge">
<title>click&#45;&gt;colorama</title>
<path fill="none" stroke="black" d="M1106.77,-121.31C1052.78,-103.87 935.68,-66.04 868.21,-44.24"/>
<polygon fill="black" stroke="black" points="869.22,-40.89 858.63,-41.14 867.07,-47.55 869.22,-40.89"/>
<text text-anchor="middle" x="1006.55" y="-75.54" font-family="Times New Roman,serif" font-size="14.00">any</text>
</g>
<!-- flask&#45;wtf -->
<g id="node26" class="node">
<title>flask&#45;wtf</title>
<ellipse fill="none" stroke="black" cx="1752.55" cy="-379.83" rx="57.97" ry="26.74"/>
<text text-anchor="middle" x="1752.55" y="-383.63" font-family="Times New Roman,serif" font-size="14.00">Flask&#45;WTF</text>
<text text-anchor="middle" x="1752.55" y="-368.63" font-family="Times New Roman,serif" font-size="14.00">1.0.0</text>
</g>
<!-- flask&#45;wtf&#45;&gt;wtforms -->
<g id="edge18" class="edge">
<title>flask&#45;wtf&#45;&gt;wtforms</title>
<path fill="none" stroke="black" d="M1738.19,-353.64C1730.43,-341.97 1719.91,-328.77 1707.55,-319.96 1686.21,-304.74 1659.23,-294.54 1635.24,-287.84"/>
<polygon fill="black" stroke="black" points="1636.08,-284.44 1625.51,-285.26 1634.28,-291.21 1636.08,-284.44"/>
<text text-anchor="middle" x="1734.55" y="-323.76" font-family="Times New Roman,serif" font-size="14.00">any</text>
</g>
<!-- flask&#45;wtf&#45;&gt;itsdangerous -->
<g id="edge16" class="edge">
<title>flask&#45;wtf&#45;&gt;itsdangerous</title>
<path fill="none" stroke="black" d="M1795.66,-361.76C1803.58,-358.75 1811.79,-355.7 1819.55,-352.96 1844.2,-344.25 1860.15,-356.09 1875.55,-334.96 1913.97,-282.25 1866.54,-206.91 1832.78,-164.6"/>
<polygon fill="black" stroke="black" points="1835.49,-162.38 1826.45,-156.85 1830.06,-166.81 1835.49,-162.38"/>
<text text-anchor="middle" x="1900.55" y="-271.39" font-family="Times New Roman,serif" font-size="14.00">any</text>
</g>
<!-- flask&#45;wtf&#45;&gt;flask -->
<g id="edge17" class="edge">
<title>flask&#45;wtf&#45;&gt;flask</title>
<path fill="none" stroke="black" d="M1710.87,-361C1702.59,-357.96 1693.88,-355.09 1685.55,-352.96 1626.91,-337.95 1609.26,-349.68 1550.55,-334.96 1532.13,-330.34 1528.61,-325.81 1510.55,-319.96 1470.74,-307.07 1424.59,-294.68 1392.11,-286.38"/>
<polygon fill="black" stroke="black" points="1392.62,-282.9 1382.07,-283.83 1390.9,-289.68 1392.62,-282.9"/>
<text text-anchor="middle" x="1560.55" y="-323.76" font-family="Times New Roman,serif" font-size="14.00">any</text>
</g>
<!-- flask&#45;sqlalchemy -->
<g id="node27" class="node">
<title>flask&#45;sqlalchemy</title>
<ellipse fill="none" stroke="black" cx="1156.55" cy="-379.83" rx="90.52" ry="26.74"/>
<text text-anchor="middle" x="1156.55" y="-383.63" font-family="Times New Roman,serif" font-size="14.00">Flask&#45;SQLAlchemy</text>
<text text-anchor="middle" x="1156.55" y="-368.63" font-family="Times New Roman,serif" font-size="14.00">2.5.1</text>
</g>
<!-- flask&#45;sqlalchemy&#45;&gt;sqlalchemy -->
<g id="edge19" class="edge">
<title>flask&#45;sqlalchemy&#45;&gt;sqlalchemy</title>
<path fill="none" stroke="black" d="M1090.09,-361.51C1077.34,-358.46 1064.07,-355.46 1051.55,-352.96 999.95,-342.66 986.03,-345.78 934.55,-334.96 909.33,-329.66 903.76,-325.29 878.55,-319.96 827.93,-309.25 813.87,-313.96 763.55,-301.96 756.52,-300.28 749.22,-298.29 742.01,-296.16"/>
<polygon fill="black" stroke="black" points="742.86,-292.76 732.28,-293.2 740.82,-299.46 742.86,-292.76"/>
<text text-anchor="middle" x="957.05" y="-323.76" font-family="Times New Roman,serif" font-size="14.00">&gt;=0.8.0</text>
</g>
<!-- flask&#45;sqlalchemy&#45;&gt;flask -->
<g id="edge20" class="edge">
<title>flask&#45;sqlalchemy&#45;&gt;flask</title>
<path fill="none" stroke="black" d="M1199.6,-356.03C1233.94,-337.84 1281.51,-312.65 1314.01,-295.44"/>
<polygon fill="black" stroke="black" points="1315.97,-298.36 1323.17,-290.59 1312.69,-292.18 1315.97,-298.36"/>
<text text-anchor="middle" x="1286.05" y="-323.76" font-family="Times New Roman,serif" font-size="14.00">&gt;=0.10</text>
</g>
<!-- flask&#45;restful -->
<g id="node28" class="node">
<title>flask&#45;restful</title>
<ellipse fill="none" stroke="black" cx="2059.55" cy="-379.83" rx="71.34" ry="26.74"/>
<text text-anchor="middle" x="2059.55" y="-383.63" font-family="Times New Roman,serif" font-size="14.00">Flask&#45;RESTful</text>
<text text-anchor="middle" x="2059.55" y="-368.63" font-family="Times New Roman,serif" font-size="14.00">0.3.9</text>
</g>
<!-- flask&#45;restful&#45;&gt;six -->
<g id="edge24" class="edge">
<title>flask&#45;restful&#45;&gt;six</title>
<path fill="none" stroke="black" d="M2008.2,-361.11C1998.73,-358.17 1988.89,-355.31 1979.55,-352.96 1936.18,-342.06 1923.24,-348.28 1880.55,-334.96 1848.32,-324.9 1813.57,-308.87 1788.11,-296.08"/>
<polygon fill="black" stroke="black" points="1789.67,-292.95 1779.17,-291.53 1786.5,-299.18 1789.67,-292.95"/>
<text text-anchor="middle" x="1903.05" y="-323.76" font-family="Times New Roman,serif" font-size="14.00">&gt;=1.3.0</text>
</g>
<!-- flask&#45;restful&#45;&gt;pytz -->
<g id="edge22" class="edge">
<title>flask&#45;restful&#45;&gt;pytz</title>
<path fill="none" stroke="black" d="M2059.55,-352.9C2059.55,-340.62 2059.55,-325.73 2059.55,-312.34"/>
<polygon fill="black" stroke="black" points="2063.05,-312.01 2059.55,-302.01 2056.05,-312.01 2063.05,-312.01"/>
<text text-anchor="middle" x="2069.55" y="-323.76" font-family="Times New Roman,serif" font-size="14.00">any</text>
</g>
<!-- flask&#45;restful&#45;&gt;flask -->
<g id="edge21" class="edge">
<title>flask&#45;restful&#45;&gt;flask</title>
<path fill="none" stroke="black" d="M2009.2,-360.77C1999.46,-357.78 1989.26,-355 1979.55,-352.96 1902.16,-336.7 1880.25,-349.59 1802.55,-334.96 1778.07,-330.35 1773.08,-324.26 1748.55,-319.96 1644.93,-301.8 1617.02,-314.27 1512.55,-301.96 1471.71,-297.15 1425.41,-289.54 1392.8,-283.81"/>
<polygon fill="black" stroke="black" points="1393.17,-280.33 1382.71,-282.03 1391.95,-287.22 1393.17,-280.33"/>
<text text-anchor="middle" x="1819.55" y="-323.76" font-family="Times New Roman,serif" font-size="14.00">&gt;=0.8</text>
</g>
<!-- aniso8601 -->
<g id="node29" class="node">
<title>aniso8601</title>
<ellipse fill="none" stroke="black" cx="2167.55" cy="-275.09" rx="51.74" ry="26.74"/>
<text text-anchor="middle" x="2167.55" y="-278.89" font-family="Times New Roman,serif" font-size="14.00">aniso8601</text>
<text text-anchor="middle" x="2167.55" y="-263.89" font-family="Times New Roman,serif" font-size="14.00">9.0.1</text>
</g>
<!-- flask&#45;restful&#45;&gt;aniso8601 -->
<g id="edge23" class="edge">
<title>flask&#45;restful&#45;&gt;aniso8601</title>
<path fill="none" stroke="black" d="M2085.14,-354.48C2100.26,-340.1 2119.53,-321.77 2135.63,-306.45"/>
<polygon fill="black" stroke="black" points="2138.42,-308.63 2143.25,-299.21 2133.59,-303.56 2138.42,-308.63"/>
<text text-anchor="middle" x="2141.05" y="-323.76" font-family="Times New Roman,serif" font-size="14.00">&gt;=0.82</text>
</g>
<!-- flask&#45;principal -->
<g id="node30" class="node">
<title>flask&#45;principal</title>
<ellipse fill="none" stroke="black" cx="1899.55" cy="-379.83" rx="70.92" ry="26.74"/>
<text text-anchor="middle" x="1899.55" y="-383.63" font-family="Times New Roman,serif" font-size="14.00">Flask&#45;Principal</text>
<text text-anchor="middle" x="1899.55" y="-368.63" font-family="Times New Roman,serif" font-size="14.00">0.4.0</text>
</g>
<!-- flask&#45;principal&#45;&gt;flask -->
<g id="edge26" class="edge">
<title>flask&#45;principal&#45;&gt;flask</title>
<path fill="none" stroke="black" d="M1848.72,-360.87C1839.11,-357.91 1829.09,-355.12 1819.55,-352.96 1760.07,-339.53 1739.71,-358.7 1683.55,-334.96 1673.64,-330.77 1674.49,-324.08 1664.55,-319.96 1601.71,-293.9 1579.93,-311.33 1512.55,-301.96 1471.95,-296.32 1425.79,-288.84 1393.16,-283.38"/>
<polygon fill="black" stroke="black" points="1393.51,-279.89 1383.07,-281.68 1392.35,-286.79 1393.51,-279.89"/>
<text text-anchor="middle" x="1693.55" y="-323.76" font-family="Times New Roman,serif" font-size="14.00">any</text>
</g>
<!-- blinker -->
<g id="node31" class="node">
<title>blinker</title>
<ellipse fill="none" stroke="black" cx="1965.55" cy="-275.09" rx="38.37" ry="26.74"/>
<text text-anchor="middle" x="1965.55" y="-278.89" font-family="Times New Roman,serif" font-size="14.00">blinker</text>
<text text-anchor="middle" x="1965.55" y="-263.89" font-family="Times New Roman,serif" font-size="14.00">1.4</text>
</g>
<!-- flask&#45;principal&#45;&gt;blinker -->
<g id="edge25" class="edge">
<title>flask&#45;principal&#45;&gt;blinker</title>
<path fill="none" stroke="black" d="M1915.86,-353.43C1924.59,-339.85 1935.42,-322.98 1944.75,-308.47"/>
<polygon fill="black" stroke="black" points="1947.87,-310.09 1950.33,-299.79 1941.98,-306.31 1947.87,-310.09"/>
<text text-anchor="middle" x="1946.55" y="-323.76" font-family="Times New Roman,serif" font-size="14.00">any</text>
</g>
<!-- flask&#45;migrate -->
<g id="node32" class="node">
<title>flask&#45;migrate</title>
<ellipse fill="none" stroke="black" cx="1156.55" cy="-484.57" rx="65.52" ry="26.74"/>
<text text-anchor="middle" x="1156.55" y="-488.37" font-family="Times New Roman,serif" font-size="14.00">Flask&#45;Migrate</text>
<text text-anchor="middle" x="1156.55" y="-473.37" font-family="Times New Roman,serif" font-size="14.00">3.1.0</text>
</g>
<!-- flask&#45;migrate&#45;&gt;flask -->
<g id="edge28" class="edge">
<title>flask&#45;migrate&#45;&gt;flask</title>
<path fill="none" stroke="black" d="M1211.03,-469.3C1294.52,-447.4 1444.63,-407.89 1445.55,-406.7 1460.11,-387.77 1455.83,-374.52 1445.55,-352.96 1433.55,-327.83 1408.89,-308.26 1387.7,-295.16"/>
<polygon fill="black" stroke="black" points="1389.26,-292.02 1378.87,-289.94 1385.7,-298.04 1389.26,-292.02"/>
<text text-anchor="middle" x="1472.55" y="-376.13" font-family="Times New Roman,serif" font-size="14.00">&gt;=0.9</text>
</g>
<!-- flask&#45;migrate&#45;&gt;flask&#45;sqlalchemy -->
<g id="edge29" class="edge">
<title>flask&#45;migrate&#45;&gt;flask&#45;sqlalchemy</title>
<path fill="none" stroke="black" d="M1156.55,-457.64C1156.55,-445.36 1156.55,-430.47 1156.55,-417.08"/>
<polygon fill="black" stroke="black" points="1160.05,-416.75 1156.55,-406.75 1153.05,-416.75 1160.05,-416.75"/>
<text text-anchor="middle" x="1173.55" y="-428.5" font-family="Times New Roman,serif" font-size="14.00">&gt;=1.0</text>
</g>
<!-- alembic -->
<g id="node33" class="node">
<title>alembic</title>
<ellipse fill="none" stroke="black" cx="782.55" cy="-379.83" rx="41.94" ry="26.74"/>
<text text-anchor="middle" x="782.55" y="-383.63" font-family="Times New Roman,serif" font-size="14.00">alembic</text>
<text text-anchor="middle" x="782.55" y="-368.63" font-family="Times New Roman,serif" font-size="14.00">1.7.6</text>
</g>
<!-- flask&#45;migrate&#45;&gt;alembic -->
<g id="edge27" class="edge">
<title>flask&#45;migrate&#45;&gt;alembic</title>
<path fill="none" stroke="black" d="M1096.13,-473.81C1030.07,-462.08 921.71,-439.77 832.55,-406.7 829.24,-405.47 825.87,-404.08 822.52,-402.59"/>
<polygon fill="black" stroke="black" points="823.76,-399.3 813.22,-398.19 820.76,-405.63 823.76,-399.3"/>
<text text-anchor="middle" x="954.55" y="-428.5" font-family="Times New Roman,serif" font-size="14.00">&gt;=0.7</text>
</g>
<!-- alembic&#45;&gt;sqlalchemy -->
<g id="edge46" class="edge">
<title>alembic&#45;&gt;sqlalchemy</title>
<path fill="none" stroke="black" d="M750.24,-362.28C728.09,-350.82 702.38,-337.22 700.55,-334.96 695.22,-328.38 691.56,-320.19 689.05,-312.04"/>
<polygon fill="black" stroke="black" points="692.4,-311.03 686.52,-302.22 685.63,-312.78 692.4,-311.03"/>
<text text-anchor="middle" x="723.05" y="-323.76" font-family="Times New Roman,serif" font-size="14.00">&gt;=1.3.0</text>
</g>
<!-- alembic&#45;&gt;mako -->
<g id="edge45" class="edge">
<title>alembic&#45;&gt;mako</title>
<path fill="none" stroke="black" d="M811.63,-360.46C819.97,-353.57 828.02,-344.95 832.55,-334.96 840.68,-317.01 866.6,-308.31 830.55,-248.22 822.51,-234.82 808.73,-225.15 795.03,-218.36"/>
<polygon fill="black" stroke="black" points="796.18,-215.04 785.63,-214.1 793.3,-221.41 796.18,-215.04"/>
<text text-anchor="middle" x="852.55" y="-323.76" font-family="Times New Roman,serif" font-size="14.00">any</text>
</g>
<!-- flask&#45;marshmallow -->
<g id="node34" class="node">
<title>flask&#45;marshmallow</title>
<ellipse fill="none" stroke="black" cx="1350.55" cy="-379.83" rx="85.62" ry="26.74"/>
<text text-anchor="middle" x="1350.55" y="-383.63" font-family="Times New Roman,serif" font-size="14.00">flask&#45;marshmallow</text>
<text text-anchor="middle" x="1350.55" y="-368.63" font-family="Times New Roman,serif" font-size="14.00">0.14.0</text>
</g>
<!-- flask&#45;marshmallow&#45;&gt;marshmallow -->
<g id="edge30" class="edge">
<title>flask&#45;marshmallow&#45;&gt;marshmallow</title>
<path fill="none" stroke="black" d="M1290.77,-360.47C1279.49,-357.55 1267.73,-354.87 1256.55,-352.96 1199.89,-343.29 1052.15,-355.69 998.55,-334.96 988.51,-331.08 989.64,-323.68 979.55,-319.96 930.3,-301.81 559.95,-304.78 507.55,-301.96 403.08,-296.35 282.31,-287.55 207.17,-281.8"/>
<polygon fill="black" stroke="black" points="207.12,-278.28 196.88,-281.01 206.58,-285.26 207.12,-278.28"/>
<text text-anchor="middle" x="1021.05" y="-323.76" font-family="Times New Roman,serif" font-size="14.00">&gt;=2.0.0</text>
</g>
<!-- flask&#45;marshmallow&#45;&gt;six -->
<g id="edge31" class="edge">
<title>flask&#45;marshmallow&#45;&gt;six</title>
<path fill="none" stroke="black" d="M1412.94,-361.35C1425.34,-358.26 1438.3,-355.29 1450.55,-352.96 1514.78,-340.75 1535.14,-357.4 1596.55,-334.96 1608.01,-330.77 1608.56,-325.27 1619.55,-319.96 1647.57,-306.41 1680.84,-295.32 1706.85,-287.68"/>
<polygon fill="black" stroke="black" points="1708.14,-290.95 1716.79,-284.83 1706.21,-284.23 1708.14,-290.95"/>
<text text-anchor="middle" x="1642.05" y="-323.76" font-family="Times New Roman,serif" font-size="14.00">&gt;=1.9.0</text>
</g>
<!-- flask&#45;marshmallow&#45;&gt;flask -->
<g id="edge32" class="edge">
<title>flask&#45;marshmallow&#45;&gt;flask</title>
<path fill="none" stroke="black" d="M1350.55,-352.9C1350.55,-340.62 1350.55,-325.73 1350.55,-312.34"/>
<polygon fill="black" stroke="black" points="1354.05,-312.01 1350.55,-302.01 1347.05,-312.01 1354.05,-312.01"/>
<text text-anchor="middle" x="1360.55" y="-323.76" font-family="Times New Roman,serif" font-size="14.00">any</text>
</g>
<!-- flask&#45;login -->
<g id="node35" class="node">
<title>flask&#45;login</title>
<ellipse fill="none" stroke="black" cx="900.55" cy="-379.83" rx="58.88" ry="26.74"/>
<text text-anchor="middle" x="900.55" y="-383.63" font-family="Times New Roman,serif" font-size="14.00">Flask&#45;Login</text>
<text text-anchor="middle" x="900.55" y="-368.63" font-family="Times New Roman,serif" font-size="14.00">0.6.0</text>
</g>
<!-- flask&#45;login&#45;&gt;werkzeug -->
<g id="edge34" class="edge">
<title>flask&#45;login&#45;&gt;werkzeug</title>
<path fill="none" stroke="black" d="M906.45,-352.98C908.86,-342.68 911.74,-330.74 914.55,-319.96 928.36,-266.88 945.95,-205.83 956.99,-168.23"/>
<polygon fill="black" stroke="black" points="960.45,-168.86 959.92,-158.28 953.74,-166.88 960.45,-168.86"/>
<text text-anchor="middle" x="957.05" y="-271.39" font-family="Times New Roman,serif" font-size="14.00">&gt;=1.0.1</text>
</g>
<!-- flask&#45;login&#45;&gt;flask -->
<g id="edge33" class="edge">
<title>flask&#45;login&#45;&gt;flask</title>
<path fill="none" stroke="black" d="M945.09,-362.23C954.44,-358.98 964.27,-355.72 973.55,-352.96 1005.99,-343.29 1016.48,-348.4 1047.55,-334.96 1058.75,-330.12 1059.15,-324.34 1070.55,-319.96 1150.16,-289.39 1250.33,-280.1 1306.72,-277.3"/>
<polygon fill="black" stroke="black" points="1307.22,-280.78 1317.06,-276.83 1306.91,-273.78 1307.22,-280.78"/>
<text text-anchor="middle" x="1093.05" y="-323.76" font-family="Times New Roman,serif" font-size="14.00">&gt;=1.0.4</text>
</g>
<!-- flask&#45;jwt&#45;extended -->
<g id="node36" class="node">
<title>flask&#45;jwt&#45;extended</title>
<ellipse fill="none" stroke="black" cx="626.55" cy="-379.83" rx="96.33" ry="26.74"/>
<text text-anchor="middle" x="626.55" y="-383.63" font-family="Times New Roman,serif" font-size="14.00">Flask&#45;JWT&#45;Extended</text>
<text text-anchor="middle" x="626.55" y="-368.63" font-family="Times New Roman,serif" font-size="14.00">4.3.1</text>
</g>
<!-- flask&#45;jwt&#45;extended&#45;&gt;werkzeug -->
<g id="edge36" class="edge">
<title>flask&#45;jwt&#45;extended&#45;&gt;werkzeug</title>
<path fill="none" stroke="black" d="M647.81,-353.35C658.85,-341.61 673.22,-328.44 688.55,-319.96 716.65,-304.4 729.85,-316.4 758.55,-301.96 830.51,-265.74 900.38,-201.44 938.31,-163.35"/>
<polygon fill="black" stroke="black" points="940.94,-165.67 945.46,-156.09 935.95,-160.76 940.94,-165.67"/>
<text text-anchor="middle" x="862.05" y="-271.39" font-family="Times New Roman,serif" font-size="14.00">&gt;=0.14</text>
</g>
<!-- flask&#45;jwt&#45;extended&#45;&gt;pyjwt -->
<g id="edge35" class="edge">
<title>flask&#45;jwt&#45;extended&#45;&gt;pyjwt</title>
<path fill="none" stroke="black" d="M602.95,-353.69C597.91,-347.76 592.82,-341.31 588.55,-334.96 583.38,-327.29 578.49,-318.6 574.22,-310.31"/>
<polygon fill="black" stroke="black" points="577.27,-308.58 569.67,-301.19 571,-311.7 577.27,-308.58"/>
<text text-anchor="middle" x="620.55" y="-323.76" font-family="Times New Roman,serif" font-size="14.00">&gt;=2.0,&lt;3.0</text>
</g>
<!-- flask&#45;jwt&#45;extended&#45;&gt;flask -->
<g id="edge37" class="edge">
<title>flask&#45;jwt&#45;extended&#45;&gt;flask</title>
<path fill="none" stroke="black" d="M688.2,-359.08C706.99,-352.28 727.45,-344.05 745.55,-334.96 756.45,-329.48 756.99,-323.88 768.55,-319.96 793.98,-311.35 1176.45,-286.91 1307.15,-278.77"/>
<polygon fill="black" stroke="black" points="1307.44,-282.26 1317.2,-278.14 1307,-275.27 1307.44,-282.26"/>
<text text-anchor="middle" x="800.55" y="-323.76" font-family="Times New Roman,serif" font-size="14.00">&gt;=1.0,&lt;3.0</text>
</g>
<!-- flask&#45;apispec -->
<g id="node37" class="node">
<title>flask&#45;apispec</title>
<ellipse fill="none" stroke="black" cx="178.55" cy="-484.57" rx="63.78" ry="26.74"/>
<text text-anchor="middle" x="178.55" y="-488.37" font-family="Times New Roman,serif" font-size="14.00">flask&#45;apispec</text>
<text text-anchor="middle" x="178.55" y="-473.37" font-family="Times New Roman,serif" font-size="14.00">0.11.0</text>
</g>
<!-- flask&#45;apispec&#45;&gt;webargs -->
<g id="edge38" class="edge">
<title>flask&#45;apispec&#45;&gt;webargs</title>
<path fill="none" stroke="black" d="M122.52,-471.72C102.72,-465.12 81.64,-455.03 66.55,-439.7 60.15,-433.2 55.59,-424.68 52.34,-416.14"/>
<polygon fill="black" stroke="black" points="55.65,-415 49.21,-406.6 49,-417.19 55.65,-415"/>
<text text-anchor="middle" x="89.05" y="-428.5" font-family="Times New Roman,serif" font-size="14.00">&gt;=6.0.0</text>
</g>
<!-- flask&#45;apispec&#45;&gt;marshmallow -->
<g id="edge40" class="edge">
<title>flask&#45;apispec&#45;&gt;marshmallow</title>
<path fill="none" stroke="black" d="M159.88,-458.72C150.26,-444.34 139.53,-425.42 134.55,-406.7 126.26,-375.55 127.18,-338.73 129.63,-312.14"/>
<polygon fill="black" stroke="black" points="133.12,-312.43 130.67,-302.12 126.16,-311.71 133.12,-312.43"/>
<text text-anchor="middle" x="157.05" y="-376.13" font-family="Times New Roman,serif" font-size="14.00">&gt;=3.0.0</text>
</g>
<!-- flask&#45;apispec&#45;&gt;flask -->
<g id="edge39" class="edge">
<title>flask&#45;apispec&#45;&gt;flask</title>
<path fill="none" stroke="black" d="M242.34,-484.25C407.82,-484.94 846.5,-479.66 968.55,-406.7 993.22,-391.95 980.35,-368.49 1004.55,-352.96 1046.61,-325.96 1066.6,-345.04 1115.55,-334.96 1184.05,-320.85 1262.72,-300.23 1309.44,-287.51"/>
<polygon fill="black" stroke="black" points="1310.47,-290.86 1319.19,-284.85 1308.62,-284.11 1310.47,-290.86"/>
<text text-anchor="middle" x="1030.55" y="-376.13" font-family="Times New Roman,serif" font-size="14.00">&gt;=0.10.1</text>
</g>
<!-- apispec -->
<g id="node38" class="node">
<title>apispec</title>
<ellipse fill="none" stroke="black" cx="230.55" cy="-379.83" rx="41.94" ry="26.74"/>
<text text-anchor="middle" x="230.55" y="-383.63" font-family="Times New Roman,serif" font-size="14.00">apispec</text>
<text text-anchor="middle" x="230.55" y="-368.63" font-family="Times New Roman,serif" font-size="14.00">5.1.1</text>
</g>
<!-- flask&#45;apispec&#45;&gt;apispec -->
<g id="edge41" class="edge">
<title>flask&#45;apispec&#45;&gt;apispec</title>
<path fill="none" stroke="black" d="M191.4,-458.17C198.06,-445.01 206.29,-428.77 213.47,-414.56"/>
<polygon fill="black" stroke="black" points="216.63,-416.08 218.02,-405.58 210.38,-412.92 216.63,-416.08"/>
<text text-anchor="middle" x="231.05" y="-428.5" font-family="Times New Roman,serif" font-size="14.00">&gt;=4.0.0</text>
</g>
<!-- certifi -->
<g id="node40" class="node">
<title>certifi</title>
<ellipse fill="none" stroke="black" cx="2414.55" cy="-484.57" rx="50.41" ry="26.74"/>
<text text-anchor="middle" x="2414.55" y="-488.37" font-family="Times New Roman,serif" font-size="14.00">certifi</text>
<text text-anchor="middle" x="2414.55" y="-473.37" font-family="Times New Roman,serif" font-size="14.00">2021.10.8</text>
</g>
<!-- bootstrap&#45;flask -->
<g id="node41" class="node">
<title>bootstrap&#45;flask</title>
<ellipse fill="none" stroke="black" cx="1600.55" cy="-379.83" rx="75.82" ry="26.74"/>
<text text-anchor="middle" x="1600.55" y="-383.63" font-family="Times New Roman,serif" font-size="14.00">Bootstrap&#45;Flask</text>
<text text-anchor="middle" x="1600.55" y="-368.63" font-family="Times New Roman,serif" font-size="14.00">2.0.1</text>
</g>
<!-- bootstrap&#45;flask&#45;&gt;wtforms -->
<g id="edge44" class="edge">
<title>bootstrap&#45;flask&#45;&gt;wtforms</title>
<path fill="none" stroke="black" d="M1583.9,-353.26C1580.89,-347.46 1578.19,-341.17 1576.55,-334.96 1574.62,-327.69 1573.72,-319.74 1573.42,-312.1"/>
<polygon fill="black" stroke="black" points="1576.91,-311.93 1573.33,-301.96 1569.91,-311.99 1576.91,-311.93"/>
<text text-anchor="middle" x="1586.55" y="-323.76" font-family="Times New Roman,serif" font-size="14.00">any</text>
</g>
<!-- bootstrap&#45;flask&#45;&gt;flask -->
<g id="edge43" class="edge">
<title>bootstrap&#45;flask&#45;&gt;flask</title>
<path fill="none" stroke="black" d="M1548.12,-360.36C1529.57,-353.2 1508.8,-344.43 1490.55,-334.96 1479.72,-329.34 1478.44,-325.47 1467.55,-319.96 1443.1,-307.59 1414.29,-296.75 1391.38,-288.94"/>
<polygon fill="black" stroke="black" points="1392.22,-285.53 1381.63,-285.67 1390,-292.17 1392.22,-285.53"/>
<text text-anchor="middle" x="1500.55" y="-323.76" font-family="Times New Roman,serif" font-size="14.00">any</text>
</g>
</g>
</svg>
