<?xml version="1.0" encoding="UTF-8" standalone="no"?>
<!DOCTYPE svg PUBLIC "-//W3C//DTD SVG 1.1//EN"
 "http://www.w3.org/Graphics/SVG/1.1/DTD/svg11.dtd">
<!-- Generated by graphviz version 2.50.0 (0)
 -->
<!-- Pages: 1 -->
<svg width="798pt" height="528pt"
 viewBox="0.00 0.00 798.00 528.00" xmlns="http://www.w3.org/2000/svg" xmlns:xlink="http://www.w3.org/1999/xlink">
<g id="graph0" class="graph" transform="scale(1 1) rotate(0) translate(4 524)">
<!-- classes -->
<g id="node2" class="node">
<title>classes</title>
<polygon fill="none" stroke="black" points="321.5,-234 321.5,-262 450.5,-262 450.5,-234 321.5,-234"/>
<text text-anchor="start" x="356.5" y="-245.2" font-family="Helvetica,sans-Serif" font-weight="bold" font-size="16.00">classes</text>
<polygon fill="none" stroke="black" points="321.5,-209 321.5,-234 450.5,-234 450.5,-209 321.5,-209"/>
<text text-anchor="start" x="326.5" y="-218.8" font-family="Helvetica,sans-Serif" font-size="14.00">about</text>
<text text-anchor="start" x="360.5" y="-218.8" font-family="Helvetica,sans-Serif" font-size="14.00"> [VARCHAR]</text>
<polygon fill="none" stroke="black" points="321.5,-184 321.5,-209 450.5,-209 450.5,-184 321.5,-184"/>
<text text-anchor="start" x="326.5" y="-193.8" font-family="Helvetica,sans-Serif" text-decoration="underline" font-size="14.00">id</text>
<text text-anchor="start" x="337.5" y="-193.8" font-family="Helvetica,sans-Serif" font-size="14.00"> [INTEGER]</text>
<polygon fill="none" stroke="black" points="321.5,-159 321.5,-184 450.5,-184 450.5,-159 321.5,-159"/>
<text text-anchor="start" x="326.5" y="-168.8" font-family="Helvetica,sans-Serif" font-size="14.00">parallel</text>
<text text-anchor="start" x="370.5" y="-168.8" font-family="Helvetica,sans-Serif" font-size="14.00"> [INTEGER]</text>
<polygon fill="none" stroke="black" points="321.5,-134 321.5,-159 450.5,-159 450.5,-134 321.5,-134"/>
<text text-anchor="start" x="326.5" y="-143.8" font-family="Helvetica,sans-Serif" font-size="14.00">groups</text>
<text text-anchor="start" x="368.5" y="-143.8" font-family="Helvetica,sans-Serif" font-size="14.00"> [VARCHAR]</text>
</g>
<!-- parents -->
<g id="node3" class="node">
<title>parents</title>
<polygon fill="none" stroke="black" points="611.5,-233 611.5,-261 743.5,-261 743.5,-233 611.5,-233"/>
<text text-anchor="start" x="648.5" y="-244.2" font-family="Helvetica,sans-Serif" font-weight="bold" font-size="16.00">parents</text>
<polygon fill="none" stroke="black" points="611.5,-208 611.5,-233 743.5,-233 743.5,-208 611.5,-208"/>
<text text-anchor="start" x="616.5" y="-217.8" font-family="Helvetica,sans-Serif" font-size="14.00">class_id</text>
<text text-anchor="start" x="665.5" y="-217.8" font-family="Helvetica,sans-Serif" font-size="14.00"> [INTEGER]</text>
<polygon fill="none" stroke="black" points="611.5,-183 611.5,-208 743.5,-208 743.5,-183 611.5,-183"/>
<text text-anchor="start" x="616.5" y="-192.8" font-family="Helvetica,sans-Serif" text-decoration="underline" font-size="14.00">id</text>
<text text-anchor="start" x="627.5" y="-192.8" font-family="Helvetica,sans-Serif" font-size="14.00"> [INTEGER]</text>
<polygon fill="none" stroke="black" points="611.5,-158 611.5,-183 743.5,-183 743.5,-158 611.5,-158"/>
<text text-anchor="start" x="616.5" y="-167.8" font-family="Helvetica,sans-Serif" font-size="14.00">user_id</text>
<text text-anchor="start" x="661.5" y="-167.8" font-family="Helvetica,sans-Serif" font-size="14.00"> [INTEGER]</text>
</g>
<!-- classes&#45;&#45;parents -->
<g id="edge1" class="edge">
<title>classes&#45;&#45;parents</title>
<path fill="none" stroke="#7f7f7f" stroke-dasharray="5,2" d="M458.19,-200.97C502.38,-202.8 558.91,-205.13 603.37,-206.97"/>
<text text-anchor="start" x="572.37" y="-195.77" font-family="Times New Roman,serif" font-size="14.00">{0,1}</text>
<text text-anchor="start" x="458.19" y="-189.77" font-family="Times New Roman,serif" font-size="14.00">0..N</text>
</g>
<!-- teacher_subjects_classes -->
<g id="node4" class="node">
<title>teacher_subjects_classes</title>
<polygon fill="none" stroke="black" points="573.5,-104 573.5,-132 782.5,-132 782.5,-104 573.5,-104"/>
<text text-anchor="start" x="578.5" y="-115.2" font-family="Helvetica,sans-Serif" font-weight="bold" font-size="16.00">teacher_subjects_classes</text>
<polygon fill="none" stroke="black" points="573.5,-79 573.5,-104 782.5,-104 782.5,-79 573.5,-79"/>
<text text-anchor="start" x="578.5" y="-88.8" font-family="Helvetica,sans-Serif" font-size="14.00">subject_id</text>
<text text-anchor="start" x="639.5" y="-88.8" font-family="Helvetica,sans-Serif" font-size="14.00"> [INTEGER]</text>
<polygon fill="none" stroke="black" points="573.5,-54 573.5,-79 782.5,-79 782.5,-54 573.5,-54"/>
<text text-anchor="start" x="578.5" y="-63.8" font-family="Helvetica,sans-Serif" font-size="14.00">teacher_id</text>
<text text-anchor="start" x="642.5" y="-63.8" font-family="Helvetica,sans-Serif" font-size="14.00"> [INTEGER]</text>
<polygon fill="none" stroke="black" points="573.5,-29 573.5,-54 782.5,-54 782.5,-29 573.5,-29"/>
<text text-anchor="start" x="578.5" y="-38.8" font-family="Helvetica,sans-Serif" text-decoration="underline" font-size="14.00">id</text>
<text text-anchor="start" x="589.5" y="-38.8" font-family="Helvetica,sans-Serif" font-size="14.00"> [INTEGER]</text>
<polygon fill="none" stroke="black" points="573.5,-4 573.5,-29 782.5,-29 782.5,-4 573.5,-4"/>
<text text-anchor="start" x="578.5" y="-13.8" font-family="Helvetica,sans-Serif" font-size="14.00">class_id</text>
<text text-anchor="start" x="627.5" y="-13.8" font-family="Helvetica,sans-Serif" font-size="14.00"> [INTEGER]</text>
</g>
<!-- classes&#45;&#45;teacher_subjects_classes -->
<g id="edge2" class="edge">
<title>classes&#45;&#45;teacher_subjects_classes</title>
<path fill="none" stroke="#7f7f7f" stroke-dasharray="5,2" d="M458.19,-165.87C490.31,-151.47 528.94,-134.15 564.72,-118.11"/>
<text text-anchor="start" x="533.72" y="-106.91" font-family="Times New Roman,serif" font-size="14.00">{0,1}</text>
<text text-anchor="start" x="458.19" y="-154.67" font-family="Times New Roman,serif" font-size="14.00">0..N</text>
</g>
<!-- consultations -->
<g id="node5" class="node">
<title>consultations</title>
<polygon fill="none" stroke="black" points="604.5,-488 604.5,-516 751.5,-516 751.5,-488 604.5,-488"/>
<text text-anchor="start" x="625.5" y="-499.2" font-family="Helvetica,sans-Serif" font-weight="bold" font-size="16.00">consultations</text>
<polygon fill="none" stroke="black" points="604.5,-463 604.5,-488 751.5,-488 751.5,-463 604.5,-463"/>
<text text-anchor="start" x="609.5" y="-472.8" font-family="Helvetica,sans-Serif" font-size="14.00">url</text>
<text text-anchor="start" x="625.5" y="-472.8" font-family="Helvetica,sans-Serif" font-size="14.00"> [VARCHAR]</text>
<polygon fill="none" stroke="black" points="604.5,-438 604.5,-463 751.5,-463 751.5,-438 604.5,-438"/>
<text text-anchor="start" x="609.5" y="-447.8" font-family="Helvetica,sans-Serif" font-size="14.00">is_free</text>
<text text-anchor="start" x="650.5" y="-447.8" font-family="Helvetica,sans-Serif" font-size="14.00"> [BOOLEAN]</text>
<polygon fill="none" stroke="black" points="604.5,-413 604.5,-438 751.5,-438 751.5,-413 604.5,-413"/>
<text text-anchor="start" x="609.5" y="-422.8" font-family="Helvetica,sans-Serif" font-size="14.00">teacher_id</text>
<text text-anchor="start" x="673.5" y="-422.8" font-family="Helvetica,sans-Serif" font-size="14.00"> [INTEGER]</text>
<polygon fill="none" stroke="black" points="604.5,-388 604.5,-413 751.5,-413 751.5,-388 604.5,-388"/>
<text text-anchor="start" x="609.5" y="-397.8" font-family="Helvetica,sans-Serif" font-size="14.00">parent_id</text>
<text text-anchor="start" x="666.5" y="-397.8" font-family="Helvetica,sans-Serif" font-size="14.00"> [INTEGER]</text>
<polygon fill="none" stroke="black" points="604.5,-363 604.5,-388 751.5,-388 751.5,-363 604.5,-363"/>
<text text-anchor="start" x="609.5" y="-372.8" font-family="Helvetica,sans-Serif" font-size="14.00">date</text>
<text text-anchor="start" x="636.5" y="-372.8" font-family="Helvetica,sans-Serif" font-size="14.00"> [DATE]</text>
<polygon fill="none" stroke="black" points="604.5,-338 604.5,-363 751.5,-363 751.5,-338 604.5,-338"/>
<text text-anchor="start" x="609.5" y="-347.8" font-family="Helvetica,sans-Serif" text-decoration="underline" font-size="14.00">id</text>
<text text-anchor="start" x="620.5" y="-347.8" font-family="Helvetica,sans-Serif" font-size="14.00"> [INTEGER]</text>
<polygon fill="none" stroke="black" points="604.5,-313 604.5,-338 751.5,-338 751.5,-313 604.5,-313"/>
<text text-anchor="start" x="609.5" y="-322.8" font-family="Helvetica,sans-Serif" font-size="14.00">start_time</text>
<text text-anchor="start" x="670.5" y="-322.8" font-family="Helvetica,sans-Serif" font-size="14.00"> [TIME]</text>
<polygon fill="none" stroke="black" points="604.5,-288 604.5,-313 751.5,-313 751.5,-288 604.5,-288"/>
<text text-anchor="start" x="609.5" y="-297.8" font-family="Helvetica,sans-Serif" font-size="14.00">finish_time</text>
<text text-anchor="start" x="675.5" y="-297.8" font-family="Helvetica,sans-Serif" font-size="14.00"> [TIME]</text>
</g>
<!-- users -->
<g id="node6" class="node">
<title>users</title>
<polygon fill="none" stroke="black" points="287.5,-488 287.5,-516 484.5,-516 484.5,-488 287.5,-488"/>
<text text-anchor="start" x="364.5" y="-499.2" font-family="Helvetica,sans-Serif" font-weight="bold" font-size="16.00">users</text>
<polygon fill="none" stroke="black" points="287.5,-463 287.5,-488 484.5,-488 484.5,-463 287.5,-463"/>
<text text-anchor="start" x="292.5" y="-472.8" font-family="Helvetica,sans-Serif" font-size="14.00">hashed_password</text>
<text text-anchor="start" x="402.5" y="-472.8" font-family="Helvetica,sans-Serif" font-size="14.00"> [VARCHAR]</text>
<polygon fill="none" stroke="black" points="287.5,-438 287.5,-463 484.5,-463 484.5,-438 287.5,-438"/>
<text text-anchor="start" x="292.5" y="-447.8" font-family="Helvetica,sans-Serif" font-size="14.00">name</text>
<text text-anchor="start" x="327.5" y="-447.8" font-family="Helvetica,sans-Serif" font-size="14.00"> [VARCHAR]</text>
<polygon fill="none" stroke="black" points="287.5,-413 287.5,-438 484.5,-438 484.5,-413 287.5,-413"/>
<text text-anchor="start" x="292.5" y="-422.8" font-family="Helvetica,sans-Serif" font-size="14.00">surname</text>
<text text-anchor="start" x="346.5" y="-422.8" font-family="Helvetica,sans-Serif" font-size="14.00"> [VARCHAR]</text>
<polygon fill="none" stroke="black" points="287.5,-388 287.5,-413 484.5,-413 484.5,-388 287.5,-388"/>
<text text-anchor="start" x="292.5" y="-397.8" font-family="Helvetica,sans-Serif" font-size="14.00">middle_name</text>
<text text-anchor="start" x="375.5" y="-397.8" font-family="Helvetica,sans-Serif" font-size="14.00"> [VARCHAR]</text>
<polygon fill="none" stroke="black" points="287.5,-363 287.5,-388 484.5,-388 484.5,-363 287.5,-363"/>
<text text-anchor="start" x="292.5" y="-372.8" font-family="Helvetica,sans-Serif" font-size="14.00">role_id</text>
<text text-anchor="start" x="333.5" y="-372.8" font-family="Helvetica,sans-Serif" font-size="14.00"> [INTEGER]</text>
<polygon fill="none" stroke="black" points="287.5,-338 287.5,-363 484.5,-363 484.5,-338 287.5,-338"/>
<text text-anchor="start" x="292.5" y="-347.8" font-family="Helvetica,sans-Serif" font-size="14.00">login</text>
<text text-anchor="start" x="321.5" y="-347.8" font-family="Helvetica,sans-Serif" font-size="14.00"> [VARCHAR]</text>
<polygon fill="none" stroke="black" points="287.5,-313 287.5,-338 484.5,-338 484.5,-313 287.5,-313"/>
<text text-anchor="start" x="292.5" y="-322.8" font-family="Helvetica,sans-Serif" font-size="14.00">created_date</text>
<text text-anchor="start" x="371.5" y="-322.8" font-family="Helvetica,sans-Serif" font-size="14.00"> [DATETIME]</text>
<polygon fill="none" stroke="black" points="287.5,-288 287.5,-313 484.5,-313 484.5,-288 287.5,-288"/>
<text text-anchor="start" x="292.5" y="-297.8" font-family="Helvetica,sans-Serif" text-decoration="underline" font-size="14.00">id</text>
<text text-anchor="start" x="303.5" y="-297.8" font-family="Helvetica,sans-Serif" font-size="14.00"> [INTEGER]</text>
</g>
<!-- users&#45;&#45;parents -->
<g id="edge5" class="edge">
<title>users&#45;&#45;parents</title>
<path fill="none" stroke="#7f7f7f" stroke-dasharray="5,2" d="M492.07,-324.51C515.79,-307.77 541.03,-290.47 565,-275 577.24,-267.1 590.45,-259.03 603.35,-251.37"/>
<text text-anchor="start" x="572.35" y="-240.17" font-family="Times New Roman,serif" font-size="14.00">{0,1}</text>
<text text-anchor="start" x="492.07" y="-313.31" font-family="Times New Roman,serif" font-size="14.00">0..N</text>
</g>
<!-- users&#45;&#45;teacher_subjects_classes -->
<g id="edge6" class="edge">
<title>users&#45;&#45;teacher_subjects_classes</title>
<path fill="none" stroke="#7f7f7f" stroke-dasharray="5,2" d="M485.76,-283.89C487.89,-280.92 489.97,-277.95 492,-275 529.55,-220.4 520.37,-193.98 565,-145 567.77,-141.96 570.69,-138.97 573.71,-136.05"/>
<text text-anchor="start" x="542.71" y="-139.85" font-family="Times New Roman,serif" font-size="14.00">{0,1}</text>
<text text-anchor="start" x="460.76" y="-272.69" font-family="Times New Roman,serif" font-size="14.00">0..N</text>
</g>
<!-- users&#45;&#45;consultations -->
<g id="edge3" class="edge">
<title>users&#45;&#45;consultations</title>
<path fill="none" stroke="#7f7f7f" stroke-dasharray="5,2" d="M492.02,-395.48C526.19,-395.07 563.53,-395.21 595.62,-395.87"/>
<text text-anchor="start" x="564.62" y="-384.67" font-family="Times New Roman,serif" font-size="14.00">{0,1}</text>
<text text-anchor="start" x="492.02" y="-384.28" font-family="Times New Roman,serif" font-size="14.00">0..N</text>
</g>
<!-- users&#45;&#45;consultations -->
<g id="edge4" class="edge">
<title>users&#45;&#45;consultations</title>
<path fill="none" stroke="#7f7f7f" stroke-dasharray="5,2" d="M492.02,-408.52C526.19,-408.93 563.53,-408.79 595.62,-408.13"/>
<text text-anchor="start" x="564.62" y="-411.93" font-family="Times New Roman,serif" font-size="14.00">{0,1}</text>
<text text-anchor="start" x="492.02" y="-412.32" font-family="Times New Roman,serif" font-size="14.00">0..N</text>
</g>
<!-- roles -->
<g id="node7" class="node">
<title>roles</title>
<polygon fill="none" stroke="black" points="25,-438 25,-466 181,-466 181,-438 25,-438"/>
<text text-anchor="start" x="83.5" y="-449.2" font-family="Helvetica,sans-Serif" font-weight="bold" font-size="16.00">roles</text>
<polygon fill="none" stroke="black" points="25,-413 25,-438 181,-438 181,-413 25,-413"/>
<text text-anchor="start" x="30" y="-422.8" font-family="Helvetica,sans-Serif" text-decoration="underline" font-size="14.00">id</text>
<text text-anchor="start" x="41" y="-422.8" font-family="Helvetica,sans-Serif" font-size="14.00"> [INTEGER]</text>
<polygon fill="none" stroke="black" points="25,-388 25,-413 181,-413 181,-388 25,-388"/>
<text text-anchor="start" x="30" y="-397.8" font-family="Helvetica,sans-Serif" font-size="14.00">permissions</text>
<text text-anchor="start" x="103" y="-397.8" font-family="Helvetica,sans-Serif" font-size="14.00"> [INTEGER]</text>
<polygon fill="none" stroke="black" points="25,-363 25,-388 181,-388 181,-363 25,-363"/>
<text text-anchor="start" x="30" y="-372.8" font-family="Helvetica,sans-Serif" font-size="14.00">about</text>
<text text-anchor="start" x="64" y="-372.8" font-family="Helvetica,sans-Serif" font-size="14.00"> [VARCHAR]</text>
<polygon fill="none" stroke="black" points="25,-338 25,-363 181,-363 181,-338 25,-338"/>
<text text-anchor="start" x="30" y="-347.8" font-family="Helvetica,sans-Serif" font-size="14.00">name</text>
<text text-anchor="start" x="65" y="-347.8" font-family="Helvetica,sans-Serif" font-size="14.00"> [VARCHAR]</text>
</g>
<!-- roles&#45;&#45;users -->
<g id="edge7" class="edge">
<title>roles&#45;&#45;users</title>
<path fill="none" stroke="#7f7f7f" stroke-dasharray="5,2" d="M189.3,-402C217.51,-402 249.24,-402 278.79,-402"/>
<text text-anchor="start" x="247.79" y="-390.8" font-family="Times New Roman,serif" font-size="14.00">{0,1}</text>
<text text-anchor="start" x="189.3" y="-390.8" font-family="Times New Roman,serif" font-size="14.00">0..N</text>
</g>
<!-- subjects -->
<g id="node8" class="node">
<title>subjects</title>
<polygon fill="none" stroke="black" points="324.5,-79 324.5,-107 446.5,-107 446.5,-79 324.5,-79"/>
<text text-anchor="start" x="352.5" y="-90.2" font-family="Helvetica,sans-Serif" font-weight="bold" font-size="16.00">subjects</text>
<polygon fill="none" stroke="black" points="324.5,-54 324.5,-79 446.5,-79 446.5,-54 324.5,-54"/>
<text text-anchor="start" x="329.5" y="-63.8" font-family="Helvetica,sans-Serif" font-size="14.00">name</text>
<text text-anchor="start" x="364.5" y="-63.8" font-family="Helvetica,sans-Serif" font-size="14.00"> [VARCHAR]</text>
<polygon fill="none" stroke="black" points="324.5,-29 324.5,-54 446.5,-54 446.5,-29 324.5,-29"/>
<text text-anchor="start" x="329.5" y="-38.8" font-family="Helvetica,sans-Serif" text-decoration="underline" font-size="14.00">id</text>
<text text-anchor="start" x="340.5" y="-38.8" font-family="Helvetica,sans-Serif" font-size="14.00"> [INTEGER]</text>
<polygon fill="none" stroke="black" points="324.5,-4 324.5,-29 446.5,-29 446.5,-4 324.5,-4"/>
<text text-anchor="start" x="329.5" y="-13.8" font-family="Helvetica,sans-Serif" font-size="14.00">about</text>
<text text-anchor="start" x="363.5" y="-13.8" font-family="Helvetica,sans-Serif" font-size="14.00"> [VARCHAR]</text>
</g>
<!-- subjects&#45;&#45;teacher_subjects_classes -->
<g id="edge8" class="edge">
<title>subjects&#45;&#45;teacher_subjects_classes</title>
<path fill="none" stroke="#7f7f7f" stroke-dasharray="5,2" d="M454.86,-58.83C487.68,-60.19 527.85,-61.85 564.94,-63.38"/>
<text text-anchor="start" x="533.94" y="-52.18" font-family="Times New Roman,serif" font-size="14.00">{0,1}</text>
<text text-anchor="start" x="454.86" y="-47.63" font-family="Times New Roman,serif" font-size="14.00">0..N</text>
</g>
</g>
</svg>
